<svg width="97" height="97" viewBox="0 0 97 97" fill="none" xmlns="http://www.w3.org/2000/svg">
<path d="M69.6118 53.0647C66.7588 59.3412 55.3471 72.4647 48.5 78.1706L39.9412 70.1824L31.3824 59.9118C29.4804 57.249 25.5497 51.3529 24.5353 46.7882C23.3941 41.6529 23.9072 36.907 25.6765 31.9529C28.5294 23.9647 33.0941 21.6824 34.8059 19.9706C36.5177 18.2588 43.9353 15.9765 48.5 15.9765C53.9966 15.9765 58.7706 17.6169 61.6235 19.4C64.3284 21.0905 68.4706 24.5353 71.3235 31.3824C73.6059 41.0824 73.2428 45.0765 69.6118 53.0647Z" fill="url(#paint0_linear_40_1886)"/>
<path d="M48.5 48.5C50.7229 48.5 52.6259 47.7085 54.2089 46.1255C55.7918 44.5425 56.5833 42.6396 56.5833 40.4167C56.5833 38.1938 55.7918 36.2908 54.2089 34.7078C52.6259 33.1248 50.7229 32.3333 48.5 32.3333C46.2771 32.3333 44.3741 33.1248 42.7911 34.7078C41.2082 36.2908 40.4167 38.1938 40.4167 40.4167C40.4167 42.6396 41.2082 44.5425 42.7911 46.1255C44.3741 47.7085 46.2771 48.5 48.5 48.5ZM48.5 78.2063C56.7181 70.6618 62.8142 63.8078 66.7885 57.6443C70.7628 51.4807 72.75 46.0076 72.75 41.225C72.75 33.8826 70.4092 27.8707 65.7276 23.1891C61.046 18.5075 55.3035 16.1667 48.5 16.1667C41.6965 16.1667 35.954 18.5075 31.2724 23.1891C26.5908 27.8707 24.25 33.8826 24.25 41.225C24.25 46.0076 26.2372 51.4807 30.2115 57.6443C34.1858 63.8078 40.2819 70.6618 48.5 78.2063ZM48.5 88.9167C37.6549 79.6882 29.5547 71.1165 24.1995 63.2016C18.8443 55.2866 16.1667 47.9611 16.1667 41.225C16.1667 31.1208 19.4168 23.0712 25.9172 17.076C32.4175 11.0809 39.9451 8.08334 48.5 8.08334C57.0549 8.08334 64.5825 11.0809 71.0828 17.076C77.5832 23.0712 80.8333 31.1208 80.8333 41.225C80.8333 47.9611 78.1557 55.2866 72.8005 63.2016C67.4453 71.1165 59.3451 79.6882 48.5 88.9167Z" fill="#145328"/>
<defs>
<linearGradient id="paint0_linear_40_1886" x1="48.3406" y1="15.9765" x2="48.3406" y2="78.1706" gradientUnits="userSpaceOnUse">
<stop stop-color="#51FC6C"/>
<stop offset="1" stop-color="#51FC6C" stop-opacity="0"/>
</linearGradient>
</defs>
</svg>
